<?xml version="1.0" encoding="UTF-8"?>
<svg width="163px" height="46px" viewBox="0 0 163 46" version="1.1" xmlns="http://www.w3.org/2000/svg" xmlns:xlink="http://www.w3.org/1999/xlink">
    <!-- Generator: Sketch 49 (51002) - http://www.bohemiancoding.com/sketch -->
    <title>acmap</title>
    <desc>Created with Sketch.</desc>
    <defs></defs>
    <g id="Page-1" stroke="none" stroke-width="1" fill="none" fill-rule="evenodd">
        <g id="acmap">
            <g id="compass" fill="#5191FA">
                <path d="M34.9008828,42.6853047 C35.7496367,42.1710391 36.0209648,41.0662305 35.5067891,40.2173867 C34.9925234,39.3684531 33.8877148,39.0973047 33.0388711,39.6114805 C30.02075,41.4398906 26.5492773,42.40625 23,42.40625 C12.2993398,42.40625 3.59375,33.7006602 3.59375,23 C3.59375,12.2993398 12.2993398,3.59375 23,3.59375 C33.7006602,3.59375 42.40625,12.2993398 42.40625,23 C42.40625,26.8263555 41.2683789,30.5508281 39.1156328,33.7708281 C38.5639922,34.5958633 38.7857266,35.7118125 39.6106719,36.2632734 C40.4358867,36.8149141 41.5516563,36.5931797 42.1031172,35.7682344 C44.6525234,31.9550859 46,27.5398047 46,23 C46,16.8564844 43.6075508,11.0806992 39.2635156,6.73648437 C34.9193008,2.39244922 29.1435156,0 23,0 C16.8564844,0 11.0806992,2.39244922 6.73648438,6.73648438 C2.39244922,11.0806992 0,16.8564844 0,23 C0,29.1435156 2.39244922,34.9193008 6.73648438,39.2635156 C11.0806992,43.6075508 16.8564844,46 23,46 C27.2058555,46 31.3210586,44.8537734 34.9008828,42.6853047 Z" id="Shape" fill-rule="nonzero"></path>
                <path d="M26.0808511,31.8170213 C26.5404277,31.8170213 26.9148921,31.9702112 27.2212766,32.2765957 C27.5390087,32.5943278 27.6978723,32.9687922 27.6978723,33.4 C27.6978723,33.8425554 27.5390087,34.2226934 27.2212766,34.5404255 C26.9148921,34.84681 26.5404277,35 26.0978723,35 C24.1290683,35 22.4609998,34.3078083 21.0765957,32.9234043 C19.6921917,31.5390002 19,29.8709317 19,27.9191489 L19,12.5829787 C19,12.1517709 19.15319,11.7773066 19.4595745,11.4595745 C19.7773066,11.15319 20.1574446,11 20.6,11 C21.0312078,11 21.4056722,11.15319 21.7234043,11.4595745 C22.0297888,11.7773066 22.1829787,12.1517709 22.1829787,12.5829787 L22.1829787,17.8595745 L24.7531915,17.8595745 C25.1957469,17.8595745 25.5702112,18.0127644 25.8765957,18.3191489 C26.1943278,18.6255334 26.3531915,18.9999978 26.3531915,19.4425532 C26.3531915,19.8851086 26.1943278,20.2595729 25.8765957,20.5659574 C25.5702112,20.8836895 25.1957469,21.0425532 24.7531915,21.0425532 L22.1829787,21.0425532 L22.1829787,27.9191489 C22.1829787,28.9971685 22.5631168,29.9163083 23.3234043,30.6765957 C24.0836917,31.4368832 25.0028315,31.8170213 26.0808511,31.8170213 Z" id="t" stroke="#5191FA" stroke-width="0.6"></path>
            </g>
            <g id="Group" transform="translate(58.000000, 7.000000)" fill="#1A2B48">
                <path d="M1.57,22 C1.3499989,22 1.18500055,21.9200008 1.075,21.76 C0.96499945,21.5999992 0.9599995,21.420001 1.06,21.22 L10.39,1.03 C10.4900005,0.8099989 10.6599988,0.7 10.9,0.7 L11.2,0.7 C11.3600008,0.7 11.4749997,0.7299997 11.545,0.79 C11.6150003,0.8500003 11.6699998,0.9299995 11.71,1.03 L20.95,21.22 C21.0500005,21.420001 21.0450005,21.5999992 20.935,21.76 C20.8249994,21.9200008 20.6600011,22 20.44,22 L17.83,22 C17.6099989,22 17.4350006,21.9550005 17.305,21.865 C17.1749994,21.7749996 17.0600005,21.6200011 16.96,21.4 L15.49,18.16 L6.52,18.16 L5.05,21.4 C4.9899997,21.5600008 4.8900007,21.6999994 4.75,21.82 C4.6099993,21.9400006 4.4200012,22 4.18,22 L1.57,22 Z M14.02,14.83 L11.02,8.23 L10.93,8.23 L7.99,14.83 L14.02,14.83 Z M21.85,11.53 C21.85,10.0299925 22.1349971,8.6200066 22.705,7.3 C23.2750028,5.9799934 24.0449951,4.83500485 25.015,3.865 C25.9850048,2.89499515 27.1299934,2.12500285 28.45,1.555 C29.7700066,0.98499715 31.1799925,0.7 32.68,0.7 C34.2000076,0.7 35.5349942,0.93499765 36.685,1.405 C37.8350057,1.87500235 38.9199949,2.5699954 39.94,3.49 C40.2400015,3.7700014 40.2500014,4.0499986 39.97,4.33 L38.14,6.22 C37.8999988,6.4800013 37.6500013,6.4800013 37.39,6.22 C36.7499968,5.6599972 36.030004,5.22500155 35.23,4.915 C34.429996,4.60499845 33.6100042,4.45 32.77,4.45 C31.8099952,4.45 30.9200041,4.63499815 30.1,5.005 C29.2799959,5.37500185 28.5750029,5.8799968 27.985,6.52 C27.3949971,7.1600032 26.9300017,7.90499575 26.59,8.755 C26.2499983,9.60500425 26.08,10.4999953 26.08,11.44 C26.08,12.3800047 26.2499983,13.2699958 26.59,14.11 C26.9300017,14.9500042 27.399997,15.6849969 28,16.315 C28.600003,16.9450032 29.3099959,17.4449982 30.13,17.815 C30.9500041,18.1850019 31.8399952,18.37 32.8,18.37 C33.7000045,18.37 34.5299962,18.2150016 35.29,17.905 C36.0500038,17.5949985 36.7499968,17.1800026 37.39,16.66 C37.5100006,16.5599995 37.6399993,16.51 37.78,16.51 C37.9200007,16.51 38.0399995,16.5599995 38.14,16.66 L40,18.58 C40.1200006,18.6800005 40.1700001,18.8149992 40.15,18.985 C40.1299999,19.1550009 40.0700005,19.2899995 39.97,19.39 C38.9499949,20.390005 37.8150062,21.1249977 36.565,21.595 C35.3149937,22.0650024 34.0200067,22.3 32.68,22.3 C31.1799925,22.3 29.7700066,22.0200028 28.45,21.46 C27.1299934,20.8999972 25.9850048,20.1350049 25.015,19.165 C24.0449951,18.1949952 23.2750028,17.0550066 22.705,15.745 C22.1349971,14.4349935 21.85,13.0300075 21.85,11.53 Z M46.15,1.15 C46.1700001,1.0299994 46.2249996,0.92500045 46.315,0.835 C46.4050005,0.74499955 46.5299992,0.7 46.69,0.7 L47.17,0.7 C47.4100012,0.7 47.5799995,0.799999 47.68,1 L54.28,15.16 L54.37,15.16 L60.97,1 C61.0700005,0.799999 61.2399988,0.7 61.48,0.7 L61.96,0.7 C62.1200008,0.7 62.2449996,0.74499955 62.335,0.835 C62.4250004,0.92500045 62.4799999,1.0299994 62.5,1.15 L66.04,21.31 C66.0800002,21.5300011 66.0500005,21.6999994 65.95,21.82 C65.8499995,21.9400006 65.700001,22 65.5,22 L62.77,22 C62.6299993,22 62.5100005,21.9500005 62.41,21.85 C62.3099995,21.7499995 62.2400002,21.6500005 62.2,21.55 L60.43,10.18 L60.34,10.18 L55.09,21.97 C55.0099996,22.1900011 54.8400013,22.3 54.58,22.3 L54.04,22.3 C53.7999988,22.3 53.6300005,22.1900011 53.53,21.97 L48.22,10.18 L48.13,10.18 L46.39,21.55 C46.3699999,21.6500005 46.3100005,21.7499995 46.21,21.85 C46.1099995,21.9500005 45.9900007,22 45.85,22 L43.15,22 C42.7099978,22 42.5199997,21.7700023 42.58,21.31 L46.15,1.15 Z M68.02,22 C67.7999989,22 67.6350005,21.9200008 67.525,21.76 C67.4149994,21.5999992 67.4099995,21.420001 67.51,21.22 L76.84,1.03 C76.9400005,0.8099989 77.1099988,0.7 77.35,0.7 L77.65,0.7 C77.8100008,0.7 77.9249996,0.7299997 77.995,0.79 C78.0650003,0.8500003 78.1199998,0.9299995 78.16,1.03 L87.4,21.22 C87.5000005,21.420001 87.4950005,21.5999992 87.385,21.76 C87.2749994,21.9200008 87.1100011,22 86.89,22 L84.28,22 C84.0599989,22 83.8850006,21.9550005 83.755,21.865 C83.6249993,21.7749996 83.5100005,21.6200011 83.41,21.4 L81.94,18.16 L72.97,18.16 L71.5,21.4 C71.4399997,21.5600008 71.3400007,21.6999994 71.2,21.82 C71.0599993,21.9400006 70.8700012,22 70.63,22 L68.02,22 Z M80.47,14.83 L77.47,8.23 L77.38,8.23 L74.44,14.83 L80.47,14.83 Z M90.04,1.57 C90.04,1.4099992 90.0949994,1.27500055 90.205,1.165 C90.3150005,1.05499945 90.4499992,1 90.61,1 L97.66,1 C98.5800046,1 99.4499959,1.17499825 100.27,1.525 C101.090004,1.87500175 101.804997,2.349997 102.415,2.95 C103.025003,3.550003 103.504998,4.25499595 103.855,5.065 C104.205002,5.87500405 104.38,6.7299955 104.38,7.63 C104.38,8.5700047 104.205002,9.44499595 103.855,10.255 C103.504998,11.065004 103.025003,11.7799969 102.415,12.4 C101.804997,13.0200031 101.095004,13.5049982 100.285,13.855 C99.4749959,14.2050018 98.6100046,14.38 97.69,14.38 L93.94,14.38 L93.94,21.43 C93.94,21.5900008 93.8850005,21.7249994 93.775,21.835 C93.6649994,21.9450005 93.5300008,22 93.37,22 L90.61,22 C90.4499992,22 90.3150005,21.9450005 90.205,21.835 C90.0949994,21.7249994 90.04,21.5900008 90.04,21.43 L90.04,1.57 Z M97.54,10.72 C97.9600021,10.72 98.3499982,10.6400008 98.71,10.48 C99.0700018,10.3199992 99.3849987,10.1000014 99.655,9.82 C99.9250014,9.5399986 100.134999,9.2100019 100.285,8.83 C100.435001,8.4499981 100.51,8.0400022 100.51,7.6 C100.51,7.1799979 100.435001,6.79500175 100.285,6.445 C100.134999,6.09499825 99.9250014,5.7900013 99.655,5.53 C99.3849987,5.2699987 99.0700018,5.06500075 98.71,4.915 C98.3499982,4.76499925 97.9600021,4.69 97.54,4.69 L93.94,4.69 L93.94,10.72 L97.54,10.72 Z" id="ACMAP"></path>
                <path d="M5.44,36 L4.94,34.58 L2.03,34.58 L1.53,36 L0.34,36 L2.83,29.04 L4.15,29.04 L6.64,36 L5.44,36 Z M2.34,33.69 L4.63,33.69 L3.49,30.42 L2.34,33.69 Z M10.04,36.09 C9.239996,36.09 8.5900025,35.8300026 8.09,35.31 C7.5899975,34.7899974 7.34,34.1016709 7.34,33.245 C7.34,32.3883291 7.59166415,31.7000026 8.095,31.18 C8.59833585,30.6599974 9.2466627,30.4 10.04,30.4 C10.70667,30.4 11.2583312,30.5583318 11.695,30.875 C12.1316689,31.1916683 12.4266659,31.6433304 12.58,32.23 L11.35,32.23 C11.1433323,31.6499971 10.70667,31.36 10.04,31.36 C9.573331,31.36 9.20166805,31.5249984 8.925,31.855 C8.64833195,32.1850017 8.51,32.6466637 8.51,33.24 C8.51,33.8333363 8.64833195,34.296665 8.925,34.63 C9.20166805,34.963335 9.573331,35.13 10.04,35.13 C10.7000033,35.13 11.1366656,34.8400029 11.35,34.26 L12.58,34.26 C12.4199992,34.8200028 12.1200022,35.2649983 11.68,35.595 C11.2399978,35.9250016 10.6933366,36.09 10.04,36.09 Z M16.39,31.42 L15.05,31.42 L15.05,34.47 C15.05,34.6766677 15.0983329,34.8249996 15.195,34.915 C15.2916672,35.0050004 15.4566655,35.05 15.69,35.05 L16.39,35.05 L16.39,36 L15.49,36 C14.4299947,36 13.9,35.4900051 13.9,34.47 L13.9,31.42 L13.25,31.42 L13.25,30.49 L13.9,30.49 L13.9,29.12 L15.05,29.12 L15.05,30.49 L16.39,30.49 L16.39,31.42 Z M18.74,29.03 C18.74,29.2366677 18.6700007,29.4099993 18.53,29.55 C18.3899993,29.6900007 18.2183343,29.76 18.015,29.76 C17.8116656,29.76 17.6400007,29.6900007 17.5,29.55 C17.3599993,29.4099993 17.29,29.2366677 17.29,29.03 C17.29,28.8233323 17.3599993,28.6500007 17.5,28.51 C17.6400007,28.3699993 17.8116656,28.3 18.015,28.3 C18.2183343,28.3 18.3899993,28.3699993 18.53,28.51 C18.6700007,28.6500007 18.74,28.8233323 18.74,29.03 Z M17.44,36 L17.44,30.49 L18.58,30.49 L18.58,36 L17.44,36 Z M19.43,30.49 L20.65,30.49 L22.21,34.98 L23.77,30.49 L25,30.49 L22.9,36 L21.52,36 L19.43,30.49 Z M27.14,29.03 C27.14,29.2366677 27.0700007,29.4099993 26.93,29.55 C26.7899993,29.6900007 26.6183344,29.76 26.415,29.76 C26.2116656,29.76 26.0400007,29.6900007 25.9,29.55 C25.7599993,29.4099993 25.69,29.2366677 25.69,29.03 C25.69,28.8233323 25.7599993,28.6500007 25.9,28.51 C26.0400007,28.3699993 26.2116656,28.3 26.415,28.3 C26.6183344,28.3 26.7899993,28.3699993 26.93,28.51 C27.0700007,28.6500007 27.14,28.8233323 27.14,29.03 Z M25.84,36 L25.84,30.49 L26.98,30.49 L26.98,36 L25.84,36 Z M31.15,31.42 L29.81,31.42 L29.81,34.47 C29.81,34.6766677 29.8583329,34.8249996 29.955,34.915 C30.0516672,35.0050004 30.2166655,35.05 30.45,35.05 L31.15,35.05 L31.15,36 L30.25,36 C29.1899947,36 28.66,35.4900051 28.66,34.47 L28.66,31.42 L28.01,31.42 L28.01,30.49 L28.66,30.49 L28.66,29.12 L29.81,29.12 L29.81,30.49 L31.15,30.49 L31.15,31.42 Z M33.72,35.91 L31.55,30.49 L32.82,30.49 L34.37,34.69 L35.98,30.49 L37.16,30.49 L33.78,38.59 L32.6,38.59 L33.72,35.91 Z M48.34,29.05 L48.34,36 L47.2,36 L47.2,31.24 L45.08,36 L44.29,36 L42.16,31.24 L42.16,36 L41.02,36 L41.02,29.05 L42.25,29.05 L44.69,34.5 L47.12,29.05 L48.34,29.05 Z M53.47,34.6 C53.803335,34.2599983 53.97,33.8066695 53.97,33.24 C53.97,32.6733305 53.8050017,32.223335 53.475,31.89 C53.1449984,31.556665 52.7533356,31.39 52.3,31.39 C51.8466644,31.39 51.4550017,31.5533317 51.125,31.88 C50.7949984,32.2066683 50.63,32.6533305 50.63,33.22 C50.63,33.7866695 50.7949984,34.241665 51.125,34.585 C51.4550017,34.9283351 51.8466644,35.1 52.3,35.1 C52.7533356,35.1 53.1433317,34.933335 53.47,34.6 Z M52.06,36.09 C51.326663,36.09 50.7100025,35.8216694 50.21,35.285 C49.7099975,34.7483306 49.46,34.0616708 49.46,33.225 C49.46,32.3883291 49.7083309,31.708336 50.205,31.185 C50.7016692,30.6616641 51.3199963,30.4 52.06,30.4 C52.4933355,30.4 52.8749984,30.4983324 53.205,30.695 C53.5350017,30.8916677 53.7899991,31.1499984 53.97,31.47 L53.97,30.49 L55.12,30.49 L55.12,36 L53.97,36 L53.97,34.97 C53.7833324,35.3100017 53.5266683,35.5816656 53.2,35.785 C52.8733317,35.9883344 52.4933355,36.09 52.06,36.09 Z M57.76,30.49 L57.76,31.45 C58.1133351,30.7499965 58.6633296,30.4 59.41,30.4 L59.41,31.58 L59.12,31.58 C58.6733311,31.58 58.3350011,31.6933322 58.105,31.92 C57.8749988,32.1466678 57.76,32.5399972 57.76,33.1 L57.76,36 L56.62,36 L56.62,30.49 L57.76,30.49 Z M61.6,36 L60.46,36 L60.46,28.6 L61.6,28.6 L61.6,32.9 L63.6,30.49 L65.18,30.49 L62.64,33.25 L65.18,36 L63.64,36 L61.6,33.63 L61.6,36 Z M68.32,36.09 C67.519996,36.09 66.8700025,35.8300026 66.37,35.31 C65.8699975,34.7899974 65.62,34.1000043 65.62,33.24 C65.62,32.3799957 65.8733308,31.6916693 66.38,31.175 C66.8866692,30.6583308 67.5416627,30.4 68.345,30.4 C69.1483373,30.4 69.7999975,30.6483309 70.3,31.145 C70.8000025,31.6416692 71.05,32.289996 71.05,33.09 C71.05,33.2833343 71.0366668,33.4633325 71.01,33.63 L66.79,33.63 C66.8166668,34.0900023 66.9716653,34.4549987 67.255,34.725 C67.5383348,34.9950013 67.8933312,35.13 68.32,35.13 C68.9400031,35.13 69.3766654,34.8733359 69.63,34.36 L70.86,34.36 C70.6933325,34.8666692 70.3900022,35.2816651 69.95,35.605 C69.5099978,35.9283349 68.9666699,36.09 68.32,36.09 Z M69.86,32.85 C69.8533333,32.3966644 69.7033348,32.0350014 69.41,31.765 C69.1166652,31.4949987 68.7600021,31.36 68.34,31.36 C67.9199979,31.36 67.5683348,31.4949987 67.285,31.765 C67.0016653,32.0350014 66.8400002,32.3966644 66.8,32.85 L69.86,32.85 Z M74.84,31.42 L73.5,31.42 L73.5,34.47 C73.5,34.6766677 73.5483329,34.8249996 73.645,34.915 C73.7416672,35.0050004 73.9066655,35.05 74.14,35.05 L74.84,35.05 L74.84,36 L73.94,36 C72.8799947,36 72.35,35.4900051 72.35,34.47 L72.35,31.42 L71.7,31.42 L71.7,30.49 L72.35,30.49 L72.35,29.12 L73.5,29.12 L73.5,30.49 L74.84,30.49 L74.84,31.42 Z M79.88,34.59 C80.213335,34.2433316 80.38,33.7866695 80.38,33.22 C80.38,32.6533305 80.2150017,32.2066683 79.885,31.88 C79.5549984,31.5533317 79.161669,31.39 78.705,31.39 C78.2483311,31.39 77.8550017,31.556665 77.525,31.89 C77.1949984,32.223335 77.03,32.6733305 77.03,33.24 C77.03,33.8066695 77.1949984,34.2583317 77.525,34.595 C77.8550017,34.9316683 78.2466644,35.1 78.7,35.1 C79.1533356,35.1 79.546665,34.9300017 79.88,34.59 Z M78.95,30.4 C79.6900037,30.4 80.3066642,30.6616641 80.8,31.185 C81.2933358,31.708336 81.54,32.3883291 81.54,33.225 C81.54,34.0616708 81.2916692,34.7483306 80.795,35.285 C80.2983309,35.8216694 79.683337,36.09 78.95,36.09 C78.5166645,36.09 78.1366683,35.9883344 77.81,35.785 C77.4833317,35.5816656 77.2233343,35.3100017 77.03,34.97 L77.03,38.62 L75.89,38.62 L75.89,30.49 L77.03,30.49 L77.03,31.47 C77.2166676,31.1499984 77.4749984,30.8916677 77.805,30.695 C78.1350017,30.4983324 78.5166645,30.4 78.95,30.4 Z M82.67,36 L82.67,28.6 L83.81,28.6 L83.81,36 L82.67,36 Z M88.94,34.6 C89.273335,34.2599983 89.44,33.8066695 89.44,33.24 C89.44,32.6733305 89.2750017,32.223335 88.945,31.89 C88.6149984,31.556665 88.2233356,31.39 87.77,31.39 C87.3166644,31.39 86.9250017,31.5533317 86.595,31.88 C86.2649984,32.2066683 86.1,32.6533305 86.1,33.22 C86.1,33.7866695 86.2649984,34.241665 86.595,34.585 C86.9250017,34.9283351 87.3166644,35.1 87.77,35.1 C88.2233356,35.1 88.6133317,34.933335 88.94,34.6 Z M87.53,36.09 C86.796663,36.09 86.1800025,35.8216694 85.68,35.285 C85.1799975,34.7483306 84.93,34.0616708 84.93,33.225 C84.93,32.3883291 85.1783309,31.708336 85.675,31.185 C86.1716691,30.6616641 86.7899963,30.4 87.53,30.4 C87.9633355,30.4 88.3449983,30.4983324 88.675,30.695 C89.0050016,30.8916677 89.2599991,31.1499984 89.44,31.47 L89.44,30.49 L90.59,30.49 L90.59,36 L89.44,36 L89.44,34.97 C89.2533324,35.3100017 88.9966683,35.5816656 88.67,35.785 C88.3433317,35.9883344 87.9633355,36.09 87.53,36.09 Z M94.41,36.09 C93.609996,36.09 92.9600025,35.8300026 92.46,35.31 C91.9599975,34.7899974 91.71,34.1016709 91.71,33.245 C91.71,32.3883291 91.9616642,31.7000026 92.465,31.18 C92.9683359,30.6599974 93.6166627,30.4 94.41,30.4 C95.07667,30.4 95.6283312,30.5583318 96.065,30.875 C96.5016688,31.1916683 96.7966659,31.6433304 96.95,32.23 L95.72,32.23 C95.5133323,31.6499971 95.07667,31.36 94.41,31.36 C93.943331,31.36 93.571668,31.5249984 93.295,31.855 C93.018332,32.1850017 92.88,32.6466637 92.88,33.24 C92.88,33.8333363 93.018332,34.296665 93.295,34.63 C93.571668,34.963335 93.943331,35.13 94.41,35.13 C95.0700033,35.13 95.5066656,34.8400029 95.72,34.26 L96.95,34.26 C96.7899992,34.8200028 96.4900022,35.2649983 96.05,35.595 C95.6099978,35.9250016 95.0633366,36.09 94.41,36.09 Z M100.41,36.09 C99.609996,36.09 98.9600025,35.8300026 98.46,35.31 C97.9599975,34.7899974 97.71,34.1000043 97.71,33.24 C97.71,32.3799957 97.9633308,31.6916693 98.47,31.175 C98.9766692,30.6583308 99.6316627,30.4 100.435,30.4 C101.238337,30.4 101.889997,30.6483309 102.39,31.145 C102.890003,31.6416692 103.14,32.289996 103.14,33.09 C103.14,33.2833343 103.126667,33.4633325 103.1,33.63 L98.88,33.63 C98.9066668,34.0900023 99.0616653,34.4549987 99.345,34.725 C99.6283348,34.9950013 99.9833312,35.13 100.41,35.13 C101.030003,35.13 101.466665,34.8733359 101.72,34.36 L102.95,34.36 C102.783333,34.8666692 102.480002,35.2816651 102.04,35.605 C101.599998,35.9283349 101.05667,36.09 100.41,36.09 Z M101.95,32.85 C101.943333,32.3966644 101.793335,32.0350014 101.5,31.765 C101.206665,31.4949987 100.850002,31.36 100.43,31.36 C100.009998,31.36 99.6583348,31.4949987 99.375,31.765 C99.0916653,32.0350014 98.9300002,32.3966644 98.89,32.85 L101.95,32.85 Z" id="Activity-Marketplace"></path>
            </g>
        </g>
    </g>
</svg>